<svg id="Layer_1" data-name="Layer 1" xmlns="http://www.w3.org/2000/svg" viewBox="0 0 25.2 25.2"><defs><style>.cls-1{fill:#3e405b;}</style></defs><g id="Layer_3" data-name="Layer 3"><path class="cls-1" d="M12.6,0A12.6,12.6,0,1,0,25.2,12.6,12.6,12.6,0,0,0,12.6,0ZM17,20.32a2.05,2.05,0,0,1-2.34-2.25V15.48h-1.6V14.11h1.6V12.6h0V9.3c0-1-.45-1.49-1.18-1.49s-1.39.53-1.39,1.64V12.6H10.31V9.3c0-1-.43-1.49-1.19-1.49s-1.37.53-1.37,1.64V12.6H5.93V6.34H7.67v.72a2.51,2.51,0,0,1,2-.82,2.36,2.36,0,0,1,2.07,1,2.8,2.8,0,0,1,2.25-1c1.5,0,2.57.86,2.57,2.77v3.6h0v1.5h1.55v1.37H16.52V18a.71.71,0,0,0,.6.82.49.49,0,0,0,.17,0,1.21,1.21,0,0,0,.72-.23l.49,1.28A2.61,2.61,0,0,1,17,20.32Z" transform="translate(0 0)"/></g></svg>